<svg xmlns="http://www.w3.org/2000/svg" width="640" height="480" viewBox="0 0 640 480">
  <g fill-rule="evenodd" stroke-width="1pt">
    <path fill="#ff0000" d="M0 0h170.7v480H0zM469.3 0H640v480H469.3z"/>
    <path fill="#fff" d="M170.7 0h298.6v480H170.7z"/>
    <path fill="#ff0000" d="M321.7 90.5l-12.2 35.8c-1.4 4.2-5.5 7-9.9 6.7l-37.6-2.7 26.3 27.7c3.3 3.5 3.9 8.7 1.5 12.9l-18.5 33.2 34.7-10.7c4.3-1.3 8.9.3 11.4 4l21 31.5 21-31.5c2.5-3.7 7.1-5.3 11.4-4l34.7 10.7-18.5-33.2c-2.4-4.2-1.8-9.4 1.5-12.9l26.3-27.7-37.6 2.7c-4.4.3-8.5-2.5-9.9-6.7l-12.2-35.8zM301 319.6l-17.7 11 6.7-20.6-17.6-11 21.8-.2 6.8-20.6 6.8 20.6 21.8.2-17.6 11 6.7 20.6z"/>
  </g>
</svg>
